<?xml version="1.0" encoding="UTF-8"?><svg id="a" xmlns="http://www.w3.org/2000/svg" viewBox="0 0 256 256"><defs><style>.b{fill:#fff;}.c{fill:#ed1c24;}</style></defs><path class="b" d="M95.8176,210.2984c-29.0019-12.481-49.3134-41.306-49.3134-74.8831,0-9.6344,1.6833-18.8731,4.7527-27.4523l-3.437-16.2688c-1.2581-5.9949-2.2082-10.8327-2.8568-14.5352-11.5902,16.4895-18.4165,36.5699-18.4165,58.2563,0,41.491,24.9192,77.1425,60.5971,92.8631,.2885-6.4347,2.6942-12.005,7.2865-16.6872,.4505-.4597,.9193-.8754,1.3875-1.2928Z"/><path class="b" d="M229.4534,135.4153c0-21.0708-6.4265-40.6389-17.422-56.8577,.0157,.6819,.0463,1.3581,.0463,2.0459,0,9.8664-2.6764,18.3968-7.9956,25.6026,3.4847,9.0703,5.4137,18.9119,5.4137,29.2092,0,42.9157-33.1795,78.0579-75.2818,81.236,2.3324,3.8461,3.53,8.1467,3.53,12.9247,0,2.4253-.3213,4.7149-.9222,6.8869,51.8969-4.4741,92.6317-47.9912,92.6317-101.0476Z"/><path class="c" d="M52.5896,91.2406c-2.4513-11.6796-3.6739-18.7451-3.6739-21.1955,0-25.0564,8.8535-42.6751,26.5648-52.8499,13.1854-7.7226,32.4041-11.587,57.6528-11.587,20.3513,0,37.8223,7.4456,52.4269,22.3263,14.5976,14.886,21.9034,32.5011,21.9034,52.8499,0,13.0001-4.9008,23.5542-14.6955,31.6526-3.0167,2.2608-12.4373,7.5382-28.2619,15.8263-10.5532,5.4671-16.2999,11.3047-17.2403,17.5217-.5663,3.5812-2.4993,9.5657-5.7922,17.9464-3.2998,8.3859-5.1385,14.5539-5.5125,18.5109l-40.9788-3.957c1.6954-17.1424,7.0646-33.0648,16.1077-47.7611,10.3609-16.577,23.2667-27.034,38.7207-31.3703,4.331-1.13,8.1937-3.4353,11.5844-6.9239,3.3942-3.4842,5.0896-7.2997,5.0896-11.4454,0-9.044-3.3488-16.9571-10.0323-23.7403-6.6906-6.7823-14.4648-10.1739-23.3191-10.1739-12.8148,0-21.9488,.8477-27.4124,2.5439-10.5532,3.3907-15.8245,10.2709-15.8245,20.631,0-.3758,.9403,3.8635,2.8244,12.717l4.2402,19.7833-40.132,8.7608-4.2393-20.0656Zm38.7947,138.2276c0-5.812,2.0303-10.7922,6.1032-14.9452,4.0667-4.1499,9.0054-6.228,14.8189-6.228,5.8105,0,10.7922,2.078,14.9452,6.228,4.1499,4.153,6.2264,9.1332,6.2264,14.9452,0,5.8151-2.0765,10.7491-6.2264,14.8205-4.153,4.0667-9.1347,6.1032-14.9453,6.1032-5.8136,0-10.7522-2.0364-14.8189-6.1032-4.0729-4.0714-6.1032-9.0053-6.1032-14.8205Z"/></svg>